<mxfile host="Electron" agent="Mozilla/5.0 (Windows NT 10.0; Win64; x64) AppleWebKit/537.36 (KHTML, like Gecko) draw.io/24.7.5 Chrome/126.0.6478.183 Electron/31.3.0 Safari/537.36" version="24.7.5">
  <diagram name="Page-1" id="1iUNJ9ZAE5r46eBvZt72">
    <mxGraphModel dx="1050" dy="629" grid="1" gridSize="10" guides="1" tooltips="1" connect="1" arrows="1" fold="1" page="1" pageScale="1" pageWidth="850" pageHeight="1100" math="0" shadow="0">
      <root>
        <mxCell id="0" />
        <mxCell id="1" parent="0" />
        <mxCell id="OTmcXqaJx2giD8zIA01d-8" style="edgeStyle=orthogonalEdgeStyle;rounded=0;orthogonalLoop=1;jettySize=auto;html=1;exitX=1;exitY=0.5;exitDx=0;exitDy=0;entryX=0;entryY=0.5;entryDx=0;entryDy=0;" parent="1" source="OTmcXqaJx2giD8zIA01d-1" target="OTmcXqaJx2giD8zIA01d-5" edge="1">
          <mxGeometry relative="1" as="geometry" />
        </mxCell>
        <mxCell id="OTmcXqaJx2giD8zIA01d-9" style="edgeStyle=orthogonalEdgeStyle;rounded=0;orthogonalLoop=1;jettySize=auto;html=1;exitX=0.75;exitY=0;exitDx=0;exitDy=0;entryX=0;entryY=0.5;entryDx=0;entryDy=0;" parent="1" source="OTmcXqaJx2giD8zIA01d-1" target="OTmcXqaJx2giD8zIA01d-4" edge="1">
          <mxGeometry relative="1" as="geometry" />
        </mxCell>
        <mxCell id="OTmcXqaJx2giD8zIA01d-10" style="edgeStyle=orthogonalEdgeStyle;rounded=0;orthogonalLoop=1;jettySize=auto;html=1;exitX=0.75;exitY=1;exitDx=0;exitDy=0;entryX=0;entryY=0.5;entryDx=0;entryDy=0;" parent="1" source="OTmcXqaJx2giD8zIA01d-1" target="OTmcXqaJx2giD8zIA01d-6" edge="1">
          <mxGeometry relative="1" as="geometry" />
        </mxCell>
        <mxCell id="OTmcXqaJx2giD8zIA01d-1" value="&lt;font style=&quot;font-size: 18px;&quot;&gt;GLAN Data&lt;/font&gt;" style="rounded=1;whiteSpace=wrap;html=1;" parent="1" vertex="1">
          <mxGeometry x="110" y="258" width="110" height="40" as="geometry" />
        </mxCell>
        <mxCell id="OTmcXqaJx2giD8zIA01d-2" value="" style="endArrow=classic;html=1;rounded=0;" parent="1" edge="1">
          <mxGeometry width="50" height="50" relative="1" as="geometry">
            <mxPoint x="10" y="278.5" as="sourcePoint" />
            <mxPoint x="110" y="278.5" as="targetPoint" />
          </mxGeometry>
        </mxCell>
        <mxCell id="OTmcXqaJx2giD8zIA01d-3" value="&lt;font style=&quot;font-size: 14px;&quot;&gt;Seed Topics&lt;/font&gt;" style="edgeLabel;html=1;align=center;verticalAlign=middle;resizable=0;points=[];" parent="OTmcXqaJx2giD8zIA01d-2" vertex="1" connectable="0">
          <mxGeometry x="-0.284" y="-3" relative="1" as="geometry">
            <mxPoint x="12" y="-16" as="offset" />
          </mxGeometry>
        </mxCell>
        <mxCell id="OTmcXqaJx2giD8zIA01d-16" style="edgeStyle=orthogonalEdgeStyle;rounded=0;orthogonalLoop=1;jettySize=auto;html=1;exitX=1;exitY=0.5;exitDx=0;exitDy=0;entryX=0;entryY=0.25;entryDx=0;entryDy=0;" parent="1" source="OTmcXqaJx2giD8zIA01d-4" target="OTmcXqaJx2giD8zIA01d-11" edge="1">
          <mxGeometry relative="1" as="geometry" />
        </mxCell>
        <mxCell id="OTmcXqaJx2giD8zIA01d-19" style="edgeStyle=orthogonalEdgeStyle;rounded=0;orthogonalLoop=1;jettySize=auto;html=1;exitX=0.75;exitY=0;exitDx=0;exitDy=0;entryX=0.5;entryY=0;entryDx=0;entryDy=0;" parent="1" source="OTmcXqaJx2giD8zIA01d-4" target="OTmcXqaJx2giD8zIA01d-17" edge="1">
          <mxGeometry relative="1" as="geometry" />
        </mxCell>
        <mxCell id="OTmcXqaJx2giD8zIA01d-4" value="&lt;font style=&quot;font-size: 14px;&quot;&gt;User Input&lt;/font&gt;" style="rounded=1;whiteSpace=wrap;html=1;" parent="1" vertex="1">
          <mxGeometry x="254" y="200" width="90" height="30" as="geometry" />
        </mxCell>
        <mxCell id="OTmcXqaJx2giD8zIA01d-15" style="edgeStyle=orthogonalEdgeStyle;rounded=0;orthogonalLoop=1;jettySize=auto;html=1;exitX=1;exitY=0.75;exitDx=0;exitDy=0;entryX=0;entryY=0.75;entryDx=0;entryDy=0;" parent="1" source="OTmcXqaJx2giD8zIA01d-5" target="OTmcXqaJx2giD8zIA01d-11" edge="1">
          <mxGeometry relative="1" as="geometry">
            <Array as="points">
              <mxPoint x="344" y="280" />
              <mxPoint x="376" y="280" />
              <mxPoint x="376" y="266" />
            </Array>
          </mxGeometry>
        </mxCell>
        <mxCell id="OTmcXqaJx2giD8zIA01d-20" style="edgeStyle=orthogonalEdgeStyle;rounded=0;orthogonalLoop=1;jettySize=auto;html=1;exitX=0.75;exitY=1;exitDx=0;exitDy=0;entryX=0;entryY=0.5;entryDx=0;entryDy=0;" parent="1" source="OTmcXqaJx2giD8zIA01d-5" target="OTmcXqaJx2giD8zIA01d-17" edge="1">
          <mxGeometry relative="1" as="geometry" />
        </mxCell>
        <mxCell id="OTmcXqaJx2giD8zIA01d-5" value="&lt;font style=&quot;font-size: 14px;&quot;&gt;Better Response&lt;/font&gt;" style="rounded=1;whiteSpace=wrap;html=1;" parent="1" vertex="1">
          <mxGeometry x="254" y="258" width="90" height="40" as="geometry" />
        </mxCell>
        <mxCell id="OTmcXqaJx2giD8zIA01d-21" style="edgeStyle=orthogonalEdgeStyle;rounded=0;orthogonalLoop=1;jettySize=auto;html=1;exitX=1;exitY=0.5;exitDx=0;exitDy=0;entryX=0.5;entryY=1;entryDx=0;entryDy=0;" parent="1" source="OTmcXqaJx2giD8zIA01d-6" target="OTmcXqaJx2giD8zIA01d-17" edge="1">
          <mxGeometry relative="1" as="geometry" />
        </mxCell>
        <mxCell id="OTmcXqaJx2giD8zIA01d-6" value="&lt;font style=&quot;font-size: 14px;&quot;&gt;Worse Response&lt;/font&gt;" style="rounded=1;whiteSpace=wrap;html=1;" parent="1" vertex="1">
          <mxGeometry x="254" y="345" width="90" height="40" as="geometry" />
        </mxCell>
        <mxCell id="OTmcXqaJx2giD8zIA01d-18" style="edgeStyle=orthogonalEdgeStyle;rounded=0;orthogonalLoop=1;jettySize=auto;html=1;exitX=1;exitY=0.5;exitDx=0;exitDy=0;" parent="1" source="OTmcXqaJx2giD8zIA01d-11" target="OTmcXqaJx2giD8zIA01d-17" edge="1">
          <mxGeometry relative="1" as="geometry">
            <Array as="points">
              <mxPoint x="610" y="248" />
            </Array>
          </mxGeometry>
        </mxCell>
        <mxCell id="OTmcXqaJx2giD8zIA01d-22" value="&lt;font style=&quot;font-size: 12px;&quot;&gt;Fine-Tuned&amp;nbsp;&lt;/font&gt;&lt;div&gt;&lt;font style=&quot;font-size: 12px;&quot;&gt;LLaMA3 Model&lt;/font&gt;&lt;/div&gt;" style="edgeLabel;html=1;align=center;verticalAlign=middle;resizable=0;points=[];" parent="OTmcXqaJx2giD8zIA01d-18" vertex="1" connectable="0">
          <mxGeometry x="-0.3967" y="1" relative="1" as="geometry">
            <mxPoint x="5" y="-17" as="offset" />
          </mxGeometry>
        </mxCell>
        <mxCell id="OTmcXqaJx2giD8zIA01d-11" value="&lt;font style=&quot;font-size: 14px;&quot;&gt;LLaMA3 8B Fine-Tuning (PeFT and QLoRA)&lt;/font&gt;" style="rounded=1;whiteSpace=wrap;html=1;" parent="1" vertex="1">
          <mxGeometry x="408" y="213" width="130" height="70" as="geometry" />
        </mxCell>
        <mxCell id="OTmcXqaJx2giD8zIA01d-17" value="&lt;font style=&quot;font-size: 14px;&quot;&gt;LLaMA3 8B DPO Training&lt;/font&gt;" style="rounded=1;whiteSpace=wrap;html=1;" parent="1" vertex="1">
          <mxGeometry x="580" y="298" width="130" height="47" as="geometry" />
        </mxCell>
        <mxCell id="OTmcXqaJx2giD8zIA01d-23" value="" style="endArrow=classic;html=1;rounded=0;" parent="1" edge="1">
          <mxGeometry width="50" height="50" relative="1" as="geometry">
            <mxPoint x="710" y="321" as="sourcePoint" />
            <mxPoint x="800" y="321" as="targetPoint" />
          </mxGeometry>
        </mxCell>
        <mxCell id="OTmcXqaJx2giD8zIA01d-24" value="&lt;font style=&quot;font-size: 14px;&quot;&gt;Final&lt;/font&gt;&lt;div&gt;&lt;font style=&quot;font-size: 14px;&quot;&gt;Model&lt;/font&gt;&lt;/div&gt;" style="edgeLabel;html=1;align=center;verticalAlign=middle;resizable=0;points=[];" parent="OTmcXqaJx2giD8zIA01d-23" vertex="1" connectable="0">
          <mxGeometry x="-0.1156" y="-1" relative="1" as="geometry">
            <mxPoint y="-22" as="offset" />
          </mxGeometry>
        </mxCell>
      </root>
    </mxGraphModel>
  </diagram>
</mxfile>
